# xmcd
#
# Track frame offsets: 
#        150
#        7787
#        23809
#        43358
#        50432
#        81432
#        93053
#        111269
#        132828
#        160396
#        177430
#        182610
#        199469
#        234442
#        239767
#        244747
#        263679
#        279937
#        300889
#        334620
#
# Disc length: 4712 seconds
#
# Revision: 2
# Processed by: cddbd v1.5.2PL0 Copyright (c) Steve Scherf et al.
# Submitted via: ExactAudioCopy v0.99pb4
#
DISCID=09126614
DTITLE=Joe Budden - Mood Muzik 2 (Can It Get Any Worse?)
DYEAR=2006
DGENRE=Hip-Hop
TTITLE0=Intro
TTITLE1=Are You In That Mood Yet?
TTITLE2=Old School Mouse
TTITLE3=Killa B.H. Skit Part 1
TTITLE4=6 Minutes of Death (feat. Jae Millz and Stack Bundles)
TTITLE5=So Serious
TTITLE6=Get It Poppin
TTITLE7=The Future
TTITLE8=If I Die Tomorrow
TTITLE9=Young Niggas
TTITLE10=Phone Sex Interlude
TTITLE11=World Takeover
TTITLE12=Dumb Out
TTITLE13=Killa B.H. Skit Part 2
TTITLE14=Ghetto America (snippet)
TTITLE15=What's Up (feat. Newz and A-Team)
TTITLE16=40 Licks
TTITLE17=For A Reason
TTITLE18=Three Sides To A Story
TTITLE19=Stained
EXTD=
EXTT0=
EXTT1=
EXTT2=
EXTT3=
EXTT4=
EXTT5=
EXTT6=
EXTT7=
EXTT8=
EXTT9=
EXTT10=
EXTT11=
EXTT12=
EXTT13=
EXTT14=
EXTT15=
EXTT16=
EXTT17=
EXTT18=
EXTT19=
PLAYORDER=
